<svg xmlns="http://www.w3.org/2000/svg" version="1.1" xmlns:xlink="http://www.w3.org/1999/xlink" xmlns:svgjs="http://svgjs.dev/svgjs" width="100%" height="100%" viewBox="0 0 1000 600"><rect width="1000" height="600" x="0" y="0" fill="#ec4d37"/><g><rect width="333.3333333333333" height="333.3333333333333" rx="13.333333333333334" ry="13.333333333333334" y="151.61113734320904" fill="#1d1b1b" transform="matrix(0.9660795671196512,0,0,0.966079567119651,0,-7.48169291718898)" x="129.38893127441406"/><path d="M211.67701689772744 393.2778061029362L211.67701689772744 393.2778061029362Q193.46396017628683 393.2778061029362 181.98057063965524 389.55501149006307Q170.52581798466116 385.83221687719004 164.31161466932687 379.0452759291061Q158.12604823563007 372.258334981022 155.7491870597188 362.8940746855643Q153.400962765445 353.5298143901067 153.400962765445 342.13233549838753L153.400962765445 342.13233549838753L153.400962765445 296.42787240496114Q153.400962765445 284.8585722234171 155.66327641480635 275.15066934830963Q157.92559006416766 265.41412959156463 164.11115649786447 258.28354606383084Q170.2967229315613 251.1243256544595 181.72283870491788 247.20107287012402Q193.177591359912 243.27782008578856 211.47655872626504 243.27782008578856L211.47655872626504 243.27782008578856Q228.00003943109402 243.27782008578856 238.681596281876 246.25605577608704Q249.33451625102052 249.205654584748 255.29098763161744 255.047578438795Q261.2188221305769 260.88950229284194 263.5956833064882 269.50920366572507Q265.943907600762 278.1002681569706 265.943907600762 289.38319952213976L265.943907600762 289.38319952213976L265.943907600762 290.7004960774641L246.7285600220094 292.41870897571323L246.7285600220094 289.6982052201521Q246.7285600220094 276.4966027852714 243.3494079887861 270.05330441683725Q239.97025595556286 263.6100060484031 232.23829791344184 261.60542433377907Q224.47770298968334 259.6008426191552 211.47655872626504 259.6008426191552L211.47655872626504 259.6008426191552Q198.70450951594663 259.6008426191552 190.34254007780095 262.4645307829037Q181.98057063965524 265.3282189466522 177.85685968385738 272.51607623766097Q173.73314872805952 279.7325704103073 173.73314872805952 292.7050777920881L173.73314872805952 292.7050777920881L173.73314872805952 345.2537555968735Q173.73314872805952 358.1403523337418 177.97140721040734 364.9845670451008Q182.18102881111764 371.8574186380972 190.6861826574508 374.4061011038334Q199.19133650378387 376.98342045120705 212.07793324065224 376.98342045120705L212.07793324065224 376.98342045120705Q224.7640718060582 376.98342045120705 232.38148232162925 375.26520755295803Q239.97025595556286 373.5469946547089 243.3494079887861 367.47597574756196Q246.7285600220094 361.3763199587777 246.7285600220094 348.3751756953594L246.7285600220094 348.3751756953594L246.7285600220094 345.9696776378106L265.943907600762 345.9696776378106L265.943907600762 346.9719684951226Q265.943907600762 357.9398941622794 263.882052122863 366.55959553516243Q261.8201966449641 375.17929690804556 256.1787309623795 381.107131407005Q250.5372652797949 387.03496590596444 239.82707154737543 390.15638600445027Q229.11687781495596 393.2778061029362 211.67701689772744 393.2778061029362ZM322.93130205935756 391.0727662168498L303.60140695405505 391.0727662168498L303.60140695405505 245.48285997187492L322.2440169000579 245.48285997187492L374.5922365333809 330.67758284339345L368.9507708507963 330.67758284339345L420.7835266146446 245.48285997187492L438.7102145197103 245.48285997187492L438.7102145197103 391.0727662168498L419.5807775858702 391.0727662168498L419.5807775858702 273.69018838479786L421.9003649985065 274.3774735440975L378.8018581340913 344.9673867804986L363.82476903768645 344.9673867804986L320.72626217327115 274.7783898870223L322.93130205935756 274.09110472772267L322.93130205935756 391.0727662168498Z " fill="#ec4d37" transform="matrix(0.9660795671196512,0,0,0.966079567119651,0,-7.48169291718898)"/><path d="M604.7546056933528 393.27779798040956L604.7546056933528 393.27779798040956Q583.2264724527117 393.27779798040956 570.3715439708901 386.42441743437814Q557.5166154890686 379.5323172242448 551.7861052019914 368.18745564239623Q546.0555949149143 356.80387439644585 546.0555949149143 343.4843099454017L546.0555949149143 343.4843099454017L546.0555949149143 288.4636672566412Q546.0555949149143 268.0584042749545 561.659619547969 255.66811176235538Q577.2249245169216 243.27781924975625 604.0576517395191 243.27781924975625L604.0576517395191 243.27781924975625Q621.3266219289542 243.27781924975625 634.1428307466738 247.30466431635097Q646.9203199002917 251.33150938294568 653.9285791027306 261.7858186904512Q660.9755579692713 272.27884766205864 660.9755579692713 291.75483870530036L660.9755579692713 291.75483870530036L636.5821695850918 294.0392988873108Q636.5821695850918 280.8358934285724 633.6007554492476 274.17611120305037Q630.6193413134035 267.5163289775283 623.6498017750664 265.19314913141596Q616.7189819008313 262.8699692853037 604.7546056933528 262.8699692853037L604.7546056933528 262.8699692853037Q588.2600287859552 262.8699692853037 579.9740206681545 268.7940778928901Q571.6492928862519 274.7181865004766 571.6492928862519 289.1606212104749L571.6492928862519 289.1606212104749L571.6492928862519 345.65261113510655Q571.6492928862519 361.1791964399574 580.438656637377 367.4130623603588Q589.228020388502 373.6856479448621 604.7546056933528 373.6856479448621L604.7546056933528 373.6856479448621Q617.415935854665 373.6856479448621 623.9982787519833 371.8658237320741Q630.6193413134035 370.00727985518427 633.3297178005346 364.50908755271837Q636.0400942876656 358.9721755861507 637.0080858902124 348.0919499735245L637.0080858902124 348.0919499735245L660.6658006564563 348.0919499735245Q659.3106124128908 364.7026858732278 653.6188217899156 374.65363954740894Q647.8883115028385 384.5658735574882 636.1175336158693 388.9411956009998Q624.3467557289002 393.27779798040956 604.7546056933528 393.27779798040956ZM701.7860839326447 390.2963838445653L701.7860839326447 245.9881957368873L727.3797819039823 245.9881957368873L727.3797819039823 260.0434338058669Q731.6002252910864 255.12603646492917 737.2532962499598 251.33150938294568Q742.9063672088332 247.49826263686032 750.6115803651057 245.4074007753592Q758.2780738572765 243.27781924975625 768.7711028288838 243.27781924975625L768.7711028288838 243.27781924975625Q785.4979977208927 243.27781924975625 795.7974283719907 248.504973903509Q806.0581393589869 253.77084822136365 811.0916956922302 262.2117349955718L811.0916956922302 262.2117349955718Q820.5005740689852 252.95773527522434 831.5743980021207 248.1177772624903Q842.6869415993581 243.27781924975625 858.3296858965144 243.27781924975625L858.3296858965144 243.27781924975625Q876.1794510474775 243.27781924975625 886.5176013626774 249.0857688650371Q896.8557516778774 254.85499881621607 901.2697933854909 264.4574755134804Q905.7225547572061 274.0599522107447 905.7225547572061 285.48225312079705L905.7225547572061 285.48225312079705L905.7225547572061 390.2963838445653L880.1288567858685 390.2963838445653L880.1288567858685 283.972186220824Q880.1288567858685 273.2468392646054 872.6172419501054 268.0584042749545Q865.144346778444 262.8699692853037 851.786062663298 262.8699692853037L851.786062663298 262.8699692853037Q839.2796111583933 262.8699692853037 831.5743980021207 266.1611407339627Q823.90790450995 269.4135925185201 820.4231347407815 274.9892241491897Q816.9383649716129 280.5648557798593 816.9383649716129 287.5343953181963L816.9383649716129 287.5343953181963L816.9383649716129 390.2963838445653L791.3446670002753 390.2963838445653L791.3446670002753 283.972186220824Q791.3446670002753 273.2468392646054 783.4845751875953 268.0584042749545Q775.5857637108134 262.8699692853037 762.2274795956674 262.8699692853037L762.2274795956674 262.8699692853037Q749.7210280907626 262.8699692853037 742.0158149344901 266.1611407339627Q734.3106017782175 269.4135925185201 730.8645516731508 274.9892241491897Q727.3797819039823 280.5648557798593 727.3797819039823 287.5343953181963L727.3797819039823 287.5343953181963L727.3797819039823 390.2963838445653L701.7860839326447 390.2963838445653Z " fill="#1d1b1b" transform="matrix(0.9660795671196512,0,0,0.966079567119651,0,-7.48169291718898)"/></g></svg>